<svg width="18" height="14" viewBox="0 0 18 14" fill="none" xmlns="http://www.w3.org/2000/svg">
<g id="Page-1">
<g id="check">
<path id="Shape" fill-rule="evenodd" clip-rule="evenodd" d="M18.0011 2.85437C18.0011 3.14471 17.885 3.43505 17.676 3.64409L7.68823 13.6318C7.47918 13.8409 7.18884 13.957 6.8985 13.957C6.60816 13.957 6.31782 13.8409 6.10877 13.6318L0.325182 7.84823C0.116136 7.63919 0 7.34884 0 7.0585C0 6.76816 0.116136 6.47782 0.325182 6.26878L1.90464 4.68932C2.11368 4.48028 2.40402 4.36414 2.69436 4.36414C2.9847 4.36414 3.27505 4.48028 3.48409 4.68932L6.8985 8.11534L14.517 0.485185C14.7261 0.27614 15.0164 0.160004 15.3068 0.160004C15.5971 0.160004 15.8875 0.27614 16.0965 0.485185L17.676 2.06464C17.885 2.27369 18.0011 2.56403 18.0011 2.85437Z" fill="#4BB7BF"/>
</g>
</g>
</svg>
